<svg xmlns="http://www.w3.org/2000/svg" xmlns:xlink="http://www.w3.org/1999/xlink" width="500" zoomAndPan="magnify" viewBox="0 0 375 374.999991" height="500" preserveAspectRatio="xMidYMid meet" version="1.0"><defs><g/><clipPath id="7dfc759c10"><path d="M 162 137.933594 L 205.914062 137.933594 L 205.914062 185.933594 L 162 185.933594 Z M 162 137.933594 " clip-rule="nonzero"/></clipPath></defs><g fill="#3e6913" fill-opacity="1"><g transform="translate(58.734376, 214.606743)"><g><path d="M 3.515625 -22.40625 L 10.078125 -22.40625 C 11.722656 -22.40625 13.226562 -22.125 14.59375 -21.5625 C 15.957031 -21.007812 17.132812 -20.238281 18.125 -19.25 C 19.113281 -18.257812 19.882812 -17.078125 20.4375 -15.703125 C 21 -14.335938 21.28125 -12.835938 21.28125 -11.203125 C 21.28125 -9.554688 21 -8.050781 20.4375 -6.6875 C 19.882812 -5.320312 19.113281 -4.140625 18.125 -3.140625 C 17.132812 -2.148438 15.957031 -1.378906 14.59375 -0.828125 C 13.226562 -0.273438 11.722656 0 10.078125 0 L 3.515625 0 Z M 10.078125 -0.953125 C 11.597656 -0.953125 12.984375 -1.203125 14.234375 -1.703125 C 15.492188 -2.210938 16.570312 -2.914062 17.46875 -3.8125 C 18.363281 -4.707031 19.0625 -5.78125 19.5625 -7.03125 C 20.0625 -8.289062 20.3125 -9.679688 20.3125 -11.203125 C 20.3125 -12.710938 20.0625 -14.097656 19.5625 -15.359375 C 19.0625 -16.617188 18.363281 -17.695312 17.46875 -18.59375 C 16.570312 -19.488281 15.492188 -20.1875 14.234375 -20.6875 C 12.984375 -21.1875 11.597656 -21.4375 10.078125 -21.4375 L 4.484375 -21.4375 L 4.484375 -0.953125 Z M 10.078125 -0.953125 "/></g></g></g><g fill="#3e6913" fill-opacity="1"><g transform="translate(81.928675, 214.606743)"><g><path d="M 3.046875 -15.6875 L 4 -15.6875 L 4 0 L 3.046875 0 Z M 3.515625 -19.84375 C 3.242188 -19.84375 3.015625 -19.929688 2.828125 -20.109375 C 2.648438 -20.296875 2.5625 -20.523438 2.5625 -20.796875 C 2.5625 -21.078125 2.648438 -21.304688 2.828125 -21.484375 C 3.015625 -21.671875 3.242188 -21.765625 3.515625 -21.765625 C 3.796875 -21.765625 4.023438 -21.671875 4.203125 -21.484375 C 4.390625 -21.304688 4.484375 -21.078125 4.484375 -20.796875 C 4.484375 -20.523438 4.390625 -20.296875 4.203125 -20.109375 C 4.023438 -19.929688 3.796875 -19.84375 3.515625 -19.84375 Z M 3.515625 -19.84375 "/></g></g></g><g fill="#3e6913" fill-opacity="1"><g transform="translate(88.96694, 214.606743)"><g><path d="M 9.796875 0 L 5.4375 0 L 1.28125 -15.6875 L 2.265625 -15.6875 L 6.171875 -0.953125 L 10.078125 -0.953125 L 14.53125 -15.6875 L 15.515625 -15.6875 L 8.953125 6.078125 L 7.96875 6.078125 Z M 9.796875 0 "/></g></g></g><g fill="#3e6913" fill-opacity="1"><g transform="translate(105.122964, 214.606743)"><g><path d="M 9.59375 0.3125 C 8.507812 0.3125 7.492188 0.109375 6.546875 -0.296875 C 5.597656 -0.710938 4.769531 -1.285156 4.0625 -2.015625 C 3.363281 -2.742188 2.804688 -3.609375 2.390625 -4.609375 C 1.972656 -5.609375 1.765625 -6.6875 1.765625 -7.84375 C 1.765625 -8.988281 1.972656 -10.0625 2.390625 -11.0625 C 2.804688 -12.070312 3.363281 -12.9375 4.0625 -13.65625 C 4.769531 -14.382812 5.597656 -14.957031 6.546875 -15.375 C 7.492188 -15.789062 8.507812 -16 9.59375 -16 C 10.644531 -16 11.632812 -15.789062 12.5625 -15.375 C 13.488281 -14.957031 14.300781 -14.382812 15 -13.65625 C 15.707031 -12.9375 16.265625 -12.078125 16.671875 -11.078125 C 17.078125 -10.085938 17.28125 -9.019531 17.28125 -7.875 L 17.28125 -7.84375 L 2.71875 -7.84375 C 2.71875 -6.789062 2.894531 -5.828125 3.25 -4.953125 C 3.601562 -4.078125 4.09375 -3.320312 4.71875 -2.6875 C 5.34375 -2.050781 6.070312 -1.550781 6.90625 -1.1875 C 7.738281 -0.820312 8.632812 -0.640625 9.59375 -0.640625 C 10.8125 -0.640625 11.828125 -0.859375 12.640625 -1.296875 C 13.453125 -1.734375 14.101562 -2.226562 14.59375 -2.78125 C 15.164062 -3.425781 15.625 -4.148438 15.96875 -4.953125 L 16.953125 -4.953125 C 16.597656 -3.953125 16.078125 -3.066406 15.390625 -2.296875 C 14.816406 -1.640625 14.054688 -1.039062 13.109375 -0.5 C 12.160156 0.0390625 10.988281 0.3125 9.59375 0.3125 Z M 16.25 -8.796875 C 16.144531 -9.710938 15.894531 -10.554688 15.5 -11.328125 C 15.101562 -12.097656 14.613281 -12.753906 14.03125 -13.296875 C 13.445312 -13.835938 12.769531 -14.265625 12 -14.578125 C 11.226562 -14.890625 10.425781 -15.046875 9.59375 -15.046875 C 8.71875 -15.046875 7.882812 -14.890625 7.09375 -14.578125 C 6.3125 -14.265625 5.613281 -13.835938 5 -13.296875 C 4.394531 -12.753906 3.894531 -12.097656 3.5 -11.328125 C 3.101562 -10.554688 2.851562 -9.710938 2.75 -8.796875 Z M 16.25 -8.796875 "/></g></g></g><g fill="#3e6913" fill-opacity="1"><g transform="translate(124.158287, 214.606743)"><g><path d="M 3.359375 -14.71875 L 0.953125 -14.71875 L 0.953125 -15.6875 L 3.359375 -15.6875 L 3.359375 -19.203125 L 4.3125 -19.203125 L 4.3125 -15.6875 L 9.765625 -15.6875 L 9.765625 -14.71875 L 4.3125 -14.71875 L 4.3125 -0.953125 L 9.921875 -0.953125 L 9.921875 0 L 3.359375 0 Z M 3.359375 -14.71875 "/></g></g></g><g fill="#3e6913" fill-opacity="1"><g transform="translate(135.035609, 214.606743)"><g><path d="M 3.046875 -15.6875 L 4 -15.6875 L 4 0 L 3.046875 0 Z M 3.515625 -19.84375 C 3.242188 -19.84375 3.015625 -19.929688 2.828125 -20.109375 C 2.648438 -20.296875 2.5625 -20.523438 2.5625 -20.796875 C 2.5625 -21.078125 2.648438 -21.304688 2.828125 -21.484375 C 3.015625 -21.671875 3.242188 -21.765625 3.515625 -21.765625 C 3.796875 -21.765625 4.023438 -21.671875 4.203125 -21.484375 C 4.390625 -21.304688 4.484375 -21.078125 4.484375 -20.796875 C 4.484375 -20.523438 4.390625 -20.296875 4.203125 -20.109375 C 4.023438 -19.929688 3.796875 -19.84375 3.515625 -19.84375 Z M 3.515625 -19.84375 "/></g></g></g><g fill="#3e6913" fill-opacity="1"><g transform="translate(142.073874, 214.606743)"><g><path d="M 8.640625 0.3125 C 7.273438 0.3125 6.148438 0.0664062 5.265625 -0.421875 C 4.378906 -0.910156 3.679688 -1.460938 3.171875 -2.078125 C 2.546875 -2.785156 2.078125 -3.585938 1.765625 -4.484375 L 2.78125 -4.484375 C 3.082031 -3.753906 3.5 -3.113281 4.03125 -2.5625 C 4.476562 -2.070312 5.070312 -1.628906 5.8125 -1.234375 C 6.5625 -0.835938 7.503906 -0.640625 8.640625 -0.640625 C 10.390625 -0.640625 11.679688 -0.984375 12.515625 -1.671875 C 13.347656 -2.367188 13.765625 -3.195312 13.765625 -4.15625 C 13.765625 -4.78125 13.597656 -5.285156 13.265625 -5.671875 C 12.929688 -6.066406 12.503906 -6.394531 11.984375 -6.65625 C 11.460938 -6.914062 10.859375 -7.128906 10.171875 -7.296875 C 9.492188 -7.460938 8.796875 -7.617188 8.078125 -7.765625 C 7.367188 -7.921875 6.671875 -8.09375 5.984375 -8.28125 C 5.296875 -8.476562 4.691406 -8.726562 4.171875 -9.03125 C 3.648438 -9.34375 3.222656 -9.734375 2.890625 -10.203125 C 2.566406 -10.671875 2.40625 -11.269531 2.40625 -12 C 2.40625 -12.46875 2.53125 -12.941406 2.78125 -13.421875 C 3.039062 -13.898438 3.414062 -14.332031 3.90625 -14.71875 C 4.394531 -15.101562 4.992188 -15.410156 5.703125 -15.640625 C 6.421875 -15.878906 7.238281 -16 8.15625 -16 C 9.394531 -16 10.421875 -15.78125 11.234375 -15.34375 C 12.046875 -14.90625 12.6875 -14.429688 13.15625 -13.921875 C 13.707031 -13.296875 14.125 -12.601562 14.40625 -11.84375 L 13.375 -11.84375 C 13.09375 -12.4375 12.71875 -12.96875 12.25 -13.4375 C 11.84375 -13.84375 11.304688 -14.210938 10.640625 -14.546875 C 9.984375 -14.878906 9.15625 -15.046875 8.15625 -15.046875 C 7.34375 -15.046875 6.640625 -14.953125 6.046875 -14.765625 C 5.453125 -14.585938 4.957031 -14.351562 4.5625 -14.0625 C 4.164062 -13.769531 3.863281 -13.441406 3.65625 -13.078125 C 3.457031 -12.722656 3.359375 -12.363281 3.359375 -12 C 3.359375 -11.40625 3.523438 -10.914062 3.859375 -10.53125 C 4.191406 -10.144531 4.617188 -9.828125 5.140625 -9.578125 C 5.660156 -9.335938 6.257812 -9.132812 6.9375 -8.96875 C 7.625 -8.8125 8.320312 -8.648438 9.03125 -8.484375 C 9.75 -8.328125 10.445312 -8.15625 11.125 -7.96875 C 11.8125 -7.78125 12.414062 -7.523438 12.9375 -7.203125 C 13.46875 -6.878906 13.894531 -6.476562 14.21875 -6 C 14.550781 -5.519531 14.71875 -4.90625 14.71875 -4.15625 C 14.71875 -3.5625 14.585938 -2.988281 14.328125 -2.4375 C 14.078125 -1.894531 13.695312 -1.421875 13.1875 -1.015625 C 12.675781 -0.617188 12.039062 -0.296875 11.28125 -0.046875 C 10.519531 0.191406 9.640625 0.3125 8.640625 0.3125 Z M 8.640625 0.3125 "/></g></g></g><g fill="#3e6913" fill-opacity="1"><g transform="translate(158.389864, 214.606743)"><g><path d="M 9.796875 0 L 5.4375 0 L 1.28125 -15.6875 L 2.265625 -15.6875 L 6.171875 -0.953125 L 10.078125 -0.953125 L 14.53125 -15.6875 L 15.515625 -15.6875 L 8.953125 6.078125 L 7.96875 6.078125 Z M 9.796875 0 "/></g></g></g><g fill="#3e6913" fill-opacity="1"><g transform="translate(174.545888, 214.606743)"><g><path d="M 9.59375 0.3125 C 8.507812 0.3125 7.492188 0.109375 6.546875 -0.296875 C 5.597656 -0.710938 4.769531 -1.285156 4.0625 -2.015625 C 3.363281 -2.742188 2.804688 -3.609375 2.390625 -4.609375 C 1.972656 -5.609375 1.765625 -6.6875 1.765625 -7.84375 C 1.765625 -8.988281 1.972656 -10.0625 2.390625 -11.0625 C 2.804688 -12.070312 3.363281 -12.9375 4.0625 -13.65625 C 4.769531 -14.382812 5.597656 -14.957031 6.546875 -15.375 C 7.492188 -15.789062 8.507812 -16 9.59375 -16 C 10.644531 -16 11.632812 -15.789062 12.5625 -15.375 C 13.488281 -14.957031 14.300781 -14.382812 15 -13.65625 C 15.707031 -12.9375 16.265625 -12.078125 16.671875 -11.078125 C 17.078125 -10.085938 17.28125 -9.019531 17.28125 -7.875 L 17.28125 -7.84375 L 2.71875 -7.84375 C 2.71875 -6.789062 2.894531 -5.828125 3.25 -4.953125 C 3.601562 -4.078125 4.09375 -3.320312 4.71875 -2.6875 C 5.34375 -2.050781 6.070312 -1.550781 6.90625 -1.1875 C 7.738281 -0.820312 8.632812 -0.640625 9.59375 -0.640625 C 10.8125 -0.640625 11.828125 -0.859375 12.640625 -1.296875 C 13.453125 -1.734375 14.101562 -2.226562 14.59375 -2.78125 C 15.164062 -3.425781 15.625 -4.148438 15.96875 -4.953125 L 16.953125 -4.953125 C 16.597656 -3.953125 16.078125 -3.066406 15.390625 -2.296875 C 14.816406 -1.640625 14.054688 -1.039062 13.109375 -0.5 C 12.160156 0.0390625 10.988281 0.3125 9.59375 0.3125 Z M 16.25 -8.796875 C 16.144531 -9.710938 15.894531 -10.554688 15.5 -11.328125 C 15.101562 -12.097656 14.613281 -12.753906 14.03125 -13.296875 C 13.445312 -13.835938 12.769531 -14.265625 12 -14.578125 C 11.226562 -14.890625 10.425781 -15.046875 9.59375 -15.046875 C 8.71875 -15.046875 7.882812 -14.890625 7.09375 -14.578125 C 6.3125 -14.265625 5.613281 -13.835938 5 -13.296875 C 4.394531 -12.753906 3.894531 -12.097656 3.5 -11.328125 C 3.101562 -10.554688 2.851562 -9.710938 2.75 -8.796875 Z M 16.25 -8.796875 "/></g></g></g><g fill="#3e6913" fill-opacity="1"><g transform="translate(193.581211, 214.606743)"><g><path d="M 3.046875 -15.6875 L 4 -15.6875 L 4 -12.484375 L 4.03125 -12.484375 C 4.519531 -13.609375 5.28125 -14.472656 6.3125 -15.078125 C 7.351562 -15.691406 8.554688 -16 9.921875 -16 C 11.691406 -16 13.117188 -15.425781 14.203125 -14.28125 C 15.296875 -13.144531 15.84375 -11.53125 15.84375 -9.4375 L 15.84375 0 L 14.875 0 L 14.875 -9.4375 C 14.875 -11.207031 14.410156 -12.582031 13.484375 -13.5625 C 12.554688 -14.550781 11.367188 -15.046875 9.921875 -15.046875 C 9.085938 -15.046875 8.304688 -14.898438 7.578125 -14.609375 C 6.859375 -14.316406 6.226562 -13.898438 5.6875 -13.359375 C 5.15625 -12.816406 4.738281 -12.160156 4.4375 -11.390625 C 4.144531 -10.617188 4 -9.753906 4 -8.796875 L 4 0 L 3.046875 0 Z M 3.046875 -15.6875 "/></g></g></g><g fill="#3e6913" fill-opacity="1"><g transform="translate(211.976683, 214.606743)"><g/></g></g><g fill="#3e6913" fill-opacity="1"><g transform="translate(220.934476, 214.606743)"><g><path d="M 10.5625 0.640625 C 9.664062 0.640625 8.851562 0.550781 8.125 0.375 C 7.40625 0.207031 6.753906 -0.015625 6.171875 -0.296875 C 5.597656 -0.585938 5.097656 -0.914062 4.671875 -1.28125 C 4.242188 -1.644531 3.867188 -2.019531 3.546875 -2.40625 C 2.828125 -3.28125 2.285156 -4.289062 1.921875 -5.4375 L 2.875 -5.4375 C 3.195312 -4.476562 3.703125 -3.625 4.390625 -2.875 C 4.660156 -2.5625 4.992188 -2.25 5.390625 -1.9375 C 5.785156 -1.625 6.234375 -1.347656 6.734375 -1.109375 C 7.234375 -0.878906 7.796875 -0.6875 8.421875 -0.53125 C 9.054688 -0.382812 9.769531 -0.3125 10.5625 -0.3125 C 11.707031 -0.3125 12.722656 -0.453125 13.609375 -0.734375 C 14.492188 -1.015625 15.226562 -1.390625 15.8125 -1.859375 C 16.40625 -2.328125 16.847656 -2.867188 17.140625 -3.484375 C 17.441406 -4.109375 17.59375 -4.757812 17.59375 -5.4375 C 17.59375 -6.289062 17.378906 -7.007812 16.953125 -7.59375 C 16.523438 -8.1875 15.96875 -8.691406 15.28125 -9.109375 C 14.601562 -9.523438 13.820312 -9.878906 12.9375 -10.171875 C 12.050781 -10.472656 11.148438 -10.765625 10.234375 -11.046875 C 9.316406 -11.335938 8.414062 -11.644531 7.53125 -11.96875 C 6.644531 -12.289062 5.859375 -12.6875 5.171875 -13.15625 C 4.492188 -13.625 3.941406 -14.1875 3.515625 -14.84375 C 3.085938 -15.507812 2.875 -16.320312 2.875 -17.28125 C 2.875 -18.050781 3.039062 -18.78125 3.375 -19.46875 C 3.707031 -20.164062 4.1875 -20.773438 4.8125 -21.296875 C 5.445312 -21.816406 6.222656 -22.238281 7.140625 -22.5625 C 8.054688 -22.882812 9.085938 -23.046875 10.234375 -23.046875 C 11.085938 -23.046875 11.859375 -22.960938 12.546875 -22.796875 C 13.242188 -22.640625 13.863281 -22.429688 14.40625 -22.171875 C 14.957031 -21.921875 15.4375 -21.632812 15.84375 -21.3125 C 16.25 -20.988281 16.597656 -20.65625 16.890625 -20.3125 C 17.597656 -19.507812 18.101562 -18.601562 18.40625 -17.59375 L 17.4375 -17.59375 C 17.164062 -18.425781 16.726562 -19.175781 16.125 -19.84375 C 15.875 -20.113281 15.566406 -20.382812 15.203125 -20.65625 C 14.835938 -20.925781 14.414062 -21.164062 13.9375 -21.375 C 13.457031 -21.59375 12.910156 -21.765625 12.296875 -21.890625 C 11.691406 -22.015625 11.003906 -22.078125 10.234375 -22.078125 C 9.191406 -22.078125 8.273438 -21.945312 7.484375 -21.6875 C 6.691406 -21.4375 6.023438 -21.085938 5.484375 -20.640625 C 4.941406 -20.191406 4.53125 -19.675781 4.25 -19.09375 C 3.976562 -18.519531 3.84375 -17.914062 3.84375 -17.28125 C 3.84375 -16.445312 4.054688 -15.738281 4.484375 -15.15625 C 4.910156 -14.582031 5.460938 -14.09375 6.140625 -13.6875 C 6.828125 -13.289062 7.613281 -12.941406 8.5 -12.640625 C 9.382812 -12.335938 10.285156 -12.046875 11.203125 -11.765625 C 12.117188 -11.492188 13.019531 -11.191406 13.90625 -10.859375 C 14.789062 -10.535156 15.570312 -10.128906 16.25 -9.640625 C 16.9375 -9.160156 17.492188 -8.582031 17.921875 -7.90625 C 18.347656 -7.238281 18.5625 -6.414062 18.5625 -5.4375 C 18.5625 -4.625 18.382812 -3.851562 18.03125 -3.125 C 17.675781 -2.40625 17.15625 -1.765625 16.46875 -1.203125 C 15.789062 -0.640625 14.957031 -0.191406 13.96875 0.140625 C 12.976562 0.472656 11.84375 0.640625 10.5625 0.640625 Z M 10.5625 0.640625 "/></g></g></g><g fill="#3e6913" fill-opacity="1"><g transform="translate(241.409443, 214.606743)"><g><path d="M 3.046875 -15.6875 L 4 -15.6875 L 4 0 L 3.046875 0 Z M 3.515625 -19.84375 C 3.242188 -19.84375 3.015625 -19.929688 2.828125 -20.109375 C 2.648438 -20.296875 2.5625 -20.523438 2.5625 -20.796875 C 2.5625 -21.078125 2.648438 -21.304688 2.828125 -21.484375 C 3.015625 -21.671875 3.242188 -21.765625 3.515625 -21.765625 C 3.796875 -21.765625 4.023438 -21.671875 4.203125 -21.484375 C 4.390625 -21.304688 4.484375 -21.078125 4.484375 -20.796875 C 4.484375 -20.523438 4.390625 -20.296875 4.203125 -20.109375 C 4.023438 -19.929688 3.796875 -19.84375 3.515625 -19.84375 Z M 3.515625 -19.84375 "/></g></g></g><g fill="#3e6913" fill-opacity="1"><g transform="translate(248.447708, 214.606743)"><g><path d="M 3.046875 -15.6875 L 4 -15.6875 L 4 -12.640625 L 4.03125 -12.640625 C 5.144531 -14.878906 7 -16 9.59375 -16 C 10.6875 -16 11.566406 -15.804688 12.234375 -15.421875 C 12.910156 -15.035156 13.429688 -14.609375 13.796875 -14.140625 C 14.222656 -13.585938 14.539062 -12.976562 14.75 -12.3125 L 14.78125 -12.3125 C 15.082031 -12.976562 15.488281 -13.585938 16 -14.140625 C 16.425781 -14.609375 16.988281 -15.035156 17.6875 -15.421875 C 18.394531 -15.804688 19.269531 -16 20.3125 -16 C 22.257812 -16 23.757812 -15.453125 24.8125 -14.359375 C 25.875 -13.273438 26.40625 -11.6875 26.40625 -9.59375 L 26.40625 0 L 25.4375 0 L 25.4375 -9.4375 C 25.4375 -11.382812 25.003906 -12.804688 24.140625 -13.703125 C 23.273438 -14.597656 22 -15.046875 20.3125 -15.046875 C 19.59375 -15.046875 18.921875 -14.910156 18.296875 -14.640625 C 17.679688 -14.367188 17.144531 -13.988281 16.6875 -13.5 C 16.226562 -13.007812 15.863281 -12.414062 15.59375 -11.71875 C 15.332031 -11.03125 15.203125 -10.269531 15.203125 -9.4375 L 15.203125 0 L 14.234375 0 L 14.234375 -9.4375 C 14.234375 -11.382812 13.820312 -12.804688 13 -13.703125 C 12.1875 -14.597656 11.050781 -15.046875 9.59375 -15.046875 C 8.789062 -15.046875 8.046875 -14.90625 7.359375 -14.625 C 6.679688 -14.34375 6.09375 -13.945312 5.59375 -13.4375 C 5.101562 -12.925781 4.710938 -12.289062 4.421875 -11.53125 C 4.140625 -10.78125 4 -9.921875 4 -8.953125 L 4 0 L 3.046875 0 Z M 3.046875 -15.6875 "/></g></g></g><g fill="#3e6913" fill-opacity="1"><g transform="translate(277.400606, 214.606743)"><g><path d="M 3.6875 5.125 L 15.84375 5.125 L 15.84375 -3.6875 L 15.8125 -3.6875 C 15.25 -2.550781 14.421875 -1.597656 13.328125 -0.828125 C 12.234375 -0.0664062 10.882812 0.3125 9.28125 0.3125 C 8.238281 0.3125 7.257812 0.117188 6.34375 -0.265625 C 5.4375 -0.660156 4.640625 -1.222656 3.953125 -1.953125 C 3.273438 -2.679688 2.738281 -3.546875 2.34375 -4.546875 C 1.957031 -5.546875 1.765625 -6.644531 1.765625 -7.84375 C 1.765625 -9.03125 1.957031 -10.125 2.34375 -11.125 C 2.738281 -12.132812 3.273438 -12.992188 3.953125 -13.703125 C 4.640625 -14.421875 5.4375 -14.984375 6.34375 -15.390625 C 7.257812 -15.796875 8.238281 -16 9.28125 -16 C 10.882812 -16 12.234375 -15.613281 13.328125 -14.84375 C 14.421875 -14.082031 15.25 -13.132812 15.8125 -12 L 15.84375 -12 L 15.84375 -15.6875 L 16.796875 -15.6875 L 16.796875 6.078125 L 3.6875 6.078125 Z M 9.28125 -0.640625 C 10.195312 -0.640625 11.054688 -0.804688 11.859375 -1.140625 C 12.660156 -1.484375 13.351562 -1.96875 13.9375 -2.59375 C 14.519531 -3.226562 14.984375 -3.988281 15.328125 -4.875 C 15.671875 -5.757812 15.84375 -6.75 15.84375 -7.84375 C 15.84375 -8.925781 15.671875 -9.910156 15.328125 -10.796875 C 14.984375 -11.679688 14.519531 -12.4375 13.9375 -13.0625 C 13.351562 -13.695312 12.660156 -14.1875 11.859375 -14.53125 C 11.054688 -14.875 10.195312 -15.046875 9.28125 -15.046875 C 8.363281 -15.046875 7.503906 -14.875 6.703125 -14.53125 C 5.898438 -14.1875 5.207031 -13.695312 4.625 -13.0625 C 4.039062 -12.4375 3.578125 -11.679688 3.234375 -10.796875 C 2.890625 -9.910156 2.71875 -8.925781 2.71875 -7.84375 C 2.71875 -6.75 2.890625 -5.757812 3.234375 -4.875 C 3.578125 -3.988281 4.039062 -3.226562 4.625 -2.59375 C 5.207031 -1.96875 5.898438 -1.484375 6.703125 -1.140625 C 7.503906 -0.804688 8.363281 -0.640625 9.28125 -0.640625 Z M 9.28125 -0.640625 "/></g></g></g><g fill="#3e6913" fill-opacity="1"><g transform="translate(297.235733, 214.606743)"><g><path d="M 9.59375 0.3125 C 8.507812 0.3125 7.492188 0.109375 6.546875 -0.296875 C 5.597656 -0.710938 4.769531 -1.285156 4.0625 -2.015625 C 3.363281 -2.742188 2.804688 -3.609375 2.390625 -4.609375 C 1.972656 -5.609375 1.765625 -6.6875 1.765625 -7.84375 C 1.765625 -8.988281 1.972656 -10.0625 2.390625 -11.0625 C 2.804688 -12.070312 3.363281 -12.9375 4.0625 -13.65625 C 4.769531 -14.382812 5.597656 -14.957031 6.546875 -15.375 C 7.492188 -15.789062 8.507812 -16 9.59375 -16 C 10.644531 -16 11.632812 -15.789062 12.5625 -15.375 C 13.488281 -14.957031 14.300781 -14.382812 15 -13.65625 C 15.707031 -12.9375 16.265625 -12.078125 16.671875 -11.078125 C 17.078125 -10.085938 17.28125 -9.019531 17.28125 -7.875 L 17.28125 -7.84375 L 2.71875 -7.84375 C 2.71875 -6.789062 2.894531 -5.828125 3.25 -4.953125 C 3.601562 -4.078125 4.09375 -3.320312 4.71875 -2.6875 C 5.34375 -2.050781 6.070312 -1.550781 6.90625 -1.1875 C 7.738281 -0.820312 8.632812 -0.640625 9.59375 -0.640625 C 10.8125 -0.640625 11.828125 -0.859375 12.640625 -1.296875 C 13.453125 -1.734375 14.101562 -2.226562 14.59375 -2.78125 C 15.164062 -3.425781 15.625 -4.148438 15.96875 -4.953125 L 16.953125 -4.953125 C 16.597656 -3.953125 16.078125 -3.066406 15.390625 -2.296875 C 14.816406 -1.640625 14.054688 -1.039062 13.109375 -0.5 C 12.160156 0.0390625 10.988281 0.3125 9.59375 0.3125 Z M 16.25 -8.796875 C 16.144531 -9.710938 15.894531 -10.554688 15.5 -11.328125 C 15.101562 -12.097656 14.613281 -12.753906 14.03125 -13.296875 C 13.445312 -13.835938 12.769531 -14.265625 12 -14.578125 C 11.226562 -14.890625 10.425781 -15.046875 9.59375 -15.046875 C 8.71875 -15.046875 7.882812 -14.890625 7.09375 -14.578125 C 6.3125 -14.265625 5.613281 -13.835938 5 -13.296875 C 4.394531 -12.753906 3.894531 -12.097656 3.5 -11.328125 C 3.101562 -10.554688 2.851562 -9.710938 2.75 -8.796875 Z M 16.25 -8.796875 "/></g></g></g><g fill="#3e6913" fill-opacity="1"><g transform="translate(122.953121, 258.85674)"><g><path d="M 3.515625 -22.40625 L 12.15625 -22.40625 C 13.351562 -22.40625 14.425781 -22.234375 15.375 -21.890625 C 16.320312 -21.546875 17.125 -21.0625 17.78125 -20.4375 C 18.445312 -19.820312 18.957031 -19.082031 19.3125 -18.21875 C 19.664062 -17.351562 19.84375 -16.398438 19.84375 -15.359375 C 19.84375 -14.316406 19.664062 -13.363281 19.3125 -12.5 C 18.957031 -11.632812 18.445312 -10.890625 17.78125 -10.265625 C 17.125 -9.648438 16.320312 -9.171875 15.375 -8.828125 C 14.425781 -8.484375 13.351562 -8.3125 12.15625 -8.3125 L 4.484375 -8.3125 L 4.484375 0 L 3.515625 0 Z M 12.15625 -9.28125 C 14.332031 -9.28125 15.992188 -9.828125 17.140625 -10.921875 C 18.296875 -12.023438 18.875 -13.503906 18.875 -15.359375 C 18.875 -17.210938 18.296875 -18.6875 17.140625 -19.78125 C 15.992188 -20.882812 14.332031 -21.4375 12.15625 -21.4375 L 4.484375 -21.4375 L 4.484375 -9.28125 Z M 12.15625 -9.28125 "/></g></g></g><g fill="#3e6913" fill-opacity="1"><g transform="translate(144.387847, 258.85674)"><g><path d="M 9.59375 0.3125 C 8.507812 0.3125 7.492188 0.109375 6.546875 -0.296875 C 5.597656 -0.710938 4.769531 -1.285156 4.0625 -2.015625 C 3.363281 -2.742188 2.804688 -3.609375 2.390625 -4.609375 C 1.972656 -5.609375 1.765625 -6.6875 1.765625 -7.84375 C 1.765625 -8.988281 1.972656 -10.0625 2.390625 -11.0625 C 2.804688 -12.070312 3.363281 -12.9375 4.0625 -13.65625 C 4.769531 -14.382812 5.597656 -14.957031 6.546875 -15.375 C 7.492188 -15.789062 8.507812 -16 9.59375 -16 C 10.644531 -16 11.632812 -15.789062 12.5625 -15.375 C 13.488281 -14.957031 14.300781 -14.382812 15 -13.65625 C 15.707031 -12.9375 16.265625 -12.078125 16.671875 -11.078125 C 17.078125 -10.085938 17.28125 -9.019531 17.28125 -7.875 L 17.28125 -7.84375 L 2.71875 -7.84375 C 2.71875 -6.789062 2.894531 -5.828125 3.25 -4.953125 C 3.601562 -4.078125 4.09375 -3.320312 4.71875 -2.6875 C 5.34375 -2.050781 6.070312 -1.550781 6.90625 -1.1875 C 7.738281 -0.820312 8.632812 -0.640625 9.59375 -0.640625 C 10.8125 -0.640625 11.828125 -0.859375 12.640625 -1.296875 C 13.453125 -1.734375 14.101562 -2.226562 14.59375 -2.78125 C 15.164062 -3.425781 15.625 -4.148438 15.96875 -4.953125 L 16.953125 -4.953125 C 16.597656 -3.953125 16.078125 -3.066406 15.390625 -2.296875 C 14.816406 -1.640625 14.054688 -1.039062 13.109375 -0.5 C 12.160156 0.0390625 10.988281 0.3125 9.59375 0.3125 Z M 16.25 -8.796875 C 16.144531 -9.710938 15.894531 -10.554688 15.5 -11.328125 C 15.101562 -12.097656 14.613281 -12.753906 14.03125 -13.296875 C 13.445312 -13.835938 12.769531 -14.265625 12 -14.578125 C 11.226562 -14.890625 10.425781 -15.046875 9.59375 -15.046875 C 8.71875 -15.046875 7.882812 -14.890625 7.09375 -14.578125 C 6.3125 -14.265625 5.613281 -13.835938 5 -13.296875 C 4.394531 -12.753906 3.894531 -12.097656 3.5 -11.328125 C 3.101562 -10.554688 2.851562 -9.710938 2.75 -8.796875 Z M 16.25 -8.796875 "/></g></g></g><g fill="#3e6913" fill-opacity="1"><g transform="translate(163.42317, 258.85674)"><g><path d="M 3.046875 -22.40625 L 4 -22.40625 L 4 -12.484375 L 4.03125 -12.484375 C 4.519531 -13.609375 5.28125 -14.472656 6.3125 -15.078125 C 7.351562 -15.691406 8.554688 -16 9.921875 -16 C 11.691406 -16 13.117188 -15.425781 14.203125 -14.28125 C 15.296875 -13.144531 15.84375 -11.53125 15.84375 -9.4375 L 15.84375 0 L 14.875 0 L 14.875 -9.4375 C 14.875 -11.207031 14.410156 -12.582031 13.484375 -13.5625 C 12.554688 -14.550781 11.367188 -15.046875 9.921875 -15.046875 C 9.085938 -15.046875 8.304688 -14.898438 7.578125 -14.609375 C 6.859375 -14.316406 6.226562 -13.898438 5.6875 -13.359375 C 5.15625 -12.816406 4.738281 -12.160156 4.4375 -11.390625 C 4.144531 -10.617188 4 -9.753906 4 -8.796875 L 4 0 L 3.046875 0 Z M 3.046875 -22.40625 "/></g></g></g><g fill="#3e6913" fill-opacity="1"><g transform="translate(181.818642, 258.85674)"><g><path d="M 3.046875 -22.40625 L 4 -22.40625 L 4 -0.953125 L 7.6875 -0.953125 L 7.6875 0 L 3.046875 0 Z M 3.046875 -22.40625 "/></g></g></g><g fill="#3e6913" fill-opacity="1"><g transform="translate(189.976631, 258.85674)"><g><path d="M 3.046875 -15.6875 L 4 -15.6875 L 4 0 L 3.046875 0 Z M 3.515625 -19.84375 C 3.242188 -19.84375 3.015625 -19.929688 2.828125 -20.109375 C 2.648438 -20.296875 2.5625 -20.523438 2.5625 -20.796875 C 2.5625 -21.078125 2.648438 -21.304688 2.828125 -21.484375 C 3.015625 -21.671875 3.242188 -21.765625 3.515625 -21.765625 C 3.796875 -21.765625 4.023438 -21.671875 4.203125 -21.484375 C 4.390625 -21.304688 4.484375 -21.078125 4.484375 -20.796875 C 4.484375 -20.523438 4.390625 -20.296875 4.203125 -20.109375 C 4.023438 -19.929688 3.796875 -19.84375 3.515625 -19.84375 Z M 3.515625 -19.84375 "/></g></g></g><g fill="#3e6913" fill-opacity="1"><g transform="translate(197.014896, 258.85674)"><g><path d="M 1.125 -15.6875 L 2.109375 -15.6875 L 6.34375 -0.953125 L 10.46875 -0.953125 L 14.6875 -15.6875 L 15.6875 -15.6875 L 11.203125 0 L 5.59375 0 Z M 1.125 -15.6875 "/></g></g></g><g fill="#3e6913" fill-opacity="1"><g transform="translate(213.81077, 258.85674)"><g><path d="M 9.28125 0.3125 C 8.238281 0.3125 7.257812 0.117188 6.34375 -0.265625 C 5.4375 -0.660156 4.640625 -1.222656 3.953125 -1.953125 C 3.273438 -2.679688 2.738281 -3.546875 2.34375 -4.546875 C 1.957031 -5.546875 1.765625 -6.644531 1.765625 -7.84375 C 1.765625 -9.03125 1.957031 -10.125 2.34375 -11.125 C 2.738281 -12.132812 3.273438 -12.992188 3.953125 -13.703125 C 4.640625 -14.421875 5.4375 -14.984375 6.34375 -15.390625 C 7.257812 -15.796875 8.238281 -16 9.28125 -16 C 10.882812 -16 12.234375 -15.613281 13.328125 -14.84375 C 14.421875 -14.082031 15.25 -13.132812 15.8125 -12 L 15.84375 -12 L 15.84375 -15.6875 L 16.796875 -15.6875 L 16.796875 0 L 15.84375 0 L 15.84375 -3.6875 L 15.8125 -3.6875 C 15.25 -2.550781 14.421875 -1.597656 13.328125 -0.828125 C 12.234375 -0.0664062 10.882812 0.3125 9.28125 0.3125 Z M 9.28125 -0.640625 C 10.195312 -0.640625 11.054688 -0.804688 11.859375 -1.140625 C 12.660156 -1.484375 13.351562 -1.96875 13.9375 -2.59375 C 14.519531 -3.226562 14.984375 -3.988281 15.328125 -4.875 C 15.671875 -5.757812 15.84375 -6.75 15.84375 -7.84375 C 15.84375 -8.925781 15.671875 -9.910156 15.328125 -10.796875 C 14.984375 -11.679688 14.519531 -12.4375 13.9375 -13.0625 C 13.351562 -13.695312 12.660156 -14.1875 11.859375 -14.53125 C 11.054688 -14.875 10.195312 -15.046875 9.28125 -15.046875 C 8.363281 -15.046875 7.503906 -14.875 6.703125 -14.53125 C 5.898438 -14.1875 5.207031 -13.695312 4.625 -13.0625 C 4.039062 -12.4375 3.578125 -11.679688 3.234375 -10.796875 C 2.890625 -9.910156 2.71875 -8.925781 2.71875 -7.84375 C 2.71875 -6.75 2.890625 -5.757812 3.234375 -4.875 C 3.578125 -3.988281 4.039062 -3.226562 4.625 -2.59375 C 5.207031 -1.96875 5.898438 -1.484375 6.703125 -1.140625 C 7.503906 -0.804688 8.363281 -0.640625 9.28125 -0.640625 Z M 9.28125 -0.640625 "/></g></g></g><g fill="#3e6913" fill-opacity="1"><g transform="translate(233.645898, 258.85674)"><g><path d="M 3.046875 -15.6875 L 4 -15.6875 L 4 -12.484375 L 4.03125 -12.484375 C 4.519531 -13.609375 5.28125 -14.472656 6.3125 -15.078125 C 7.351562 -15.691406 8.554688 -16 9.921875 -16 C 11.691406 -16 13.117188 -15.425781 14.203125 -14.28125 C 15.296875 -13.144531 15.84375 -11.53125 15.84375 -9.4375 L 15.84375 0 L 14.875 0 L 14.875 -9.4375 C 14.875 -11.207031 14.410156 -12.582031 13.484375 -13.5625 C 12.554688 -14.550781 11.367188 -15.046875 9.921875 -15.046875 C 9.085938 -15.046875 8.304688 -14.898438 7.578125 -14.609375 C 6.859375 -14.316406 6.226562 -13.898438 5.6875 -13.359375 C 5.15625 -12.816406 4.738281 -12.160156 4.4375 -11.390625 C 4.144531 -10.617188 4 -9.753906 4 -8.796875 L 4 0 L 3.046875 0 Z M 3.046875 -15.6875 "/></g></g></g><g clip-path="url(#7dfc759c10)"><path fill="#d9fa97" d="M 174.617188 189.503906 L 208.664062 189.503906 C 208.914062 189.503906 209.117188 189.707031 209.117188 189.960938 C 209.117188 190.214844 208.914062 190.417969 208.664062 190.417969 L 174.617188 190.417969 C 174.367188 190.417969 174.164062 190.214844 174.164062 189.960938 C 174.164062 189.707031 174.367188 189.503906 174.617188 189.503906 Z M 200.4375 188.195312 L 182.839844 188.195312 C 182.589844 188.195312 182.390625 187.988281 182.390625 187.738281 C 182.390625 187.484375 182.589844 187.28125 182.839844 187.28125 L 200.4375 187.28125 C 200.6875 187.28125 200.890625 187.484375 200.890625 187.738281 C 200.890625 187.988281 200.6875 188.195312 200.4375 188.195312 Z M 162.121094 150.449219 C 162.359375 153.773438 163.246094 156.71875 164.765625 159.195312 C 167.109375 163.03125 171.027344 165.738281 175.871094 166.90625 C 173.597656 167.949219 170.714844 167.660156 170.679688 167.65625 C 170.507812 167.636719 170.339844 167.722656 170.246094 167.875 C 170.15625 168.023438 170.160156 168.214844 170.253906 168.363281 C 174.167969 174.386719 186.1875 174.890625 187.988281 174.933594 C 191.859375 179.597656 191.6875 185.125 191.683594 185.179688 C 191.675781 185.433594 191.867188 185.644531 192.117188 185.65625 C 192.121094 185.65625 192.128906 185.65625 192.136719 185.65625 C 192.375 185.65625 192.574219 185.464844 192.585938 185.21875 C 192.597656 184.972656 192.789062 179.164062 188.539062 174.183594 C 188.457031 174.082031 188.332031 174.027344 188.203125 174.023438 C 188.074219 174.023438 176.019531 173.847656 171.574219 168.613281 C 172.96875 168.625 175.535156 168.4375 177.378906 167.070312 C 177.527344 166.964844 177.59375 166.777344 177.554688 166.601562 C 177.511719 166.421875 177.371094 166.285156 177.195312 166.253906 C 173.570312 165.582031 168.601562 163.730469 165.53125 158.714844 C 162.621094 153.957031 162.167969 147.589844 164.1875 139.773438 C 165.410156 142.226562 167.882812 145.394531 170.820312 148.21875 C 172.511719 149.84375 176.609375 153.488281 179.359375 153.488281 C 179.492188 153.488281 179.621094 153.480469 179.75 153.460938 C 180.4375 153.363281 181.257812 152.957031 181.570312 151.648438 C 182.261719 152.191406 182.84375 152.699219 183.339844 153.1875 C 189.273438 159.054688 190.054688 165.542969 190.351562 171.6875 C 190.363281 171.9375 190.578125 172.128906 190.824219 172.121094 C 191.074219 172.109375 191.265625 171.894531 191.253906 171.640625 C 190.964844 165.59375 190.136719 158.632812 183.972656 152.535156 C 183.308594 151.878906 182.5 151.199219 181.5 150.453125 C 181.367188 150.351562 181.191406 150.335938 181.042969 150.40625 C 180.890625 150.476562 180.792969 150.625 180.78125 150.789062 C 180.6875 152.242188 180.078125 152.492188 179.625 152.554688 C 178.019531 152.78125 174.886719 150.867188 171.441406 147.558594 C 168.085938 144.332031 165.367188 140.679688 164.515625 138.253906 C 164.453125 138.066406 164.273438 137.945312 164.078125 137.949219 C 163.882812 137.957031 163.710938 138.089844 163.65625 138.277344 C 162.382812 142.738281 161.867188 146.832031 162.121094 150.449219 " fill-opacity="1" fill-rule="nonzero"/></g></svg>